<svg width="20" height="20" viewBox="0 0 20 20" fill="none" xmlns="http://www.w3.org/2000/svg">
  <path d="M5 5V3C5 2.44772 4.55228 2 4 2H3C2.44772 2 2 2.44772 2 3V4C2 4.55228 2.44772 5 3 5H5ZM5 5H15M5 5V15M15 5H17C17.5523 5 18 4.55228 18 4V3C18 2.44772 17.5523 2 17 2H16C15.4477 2 15 2.44772 15 3V5ZM5 15H3C2.44772 15 2 15.4477 2 16V17C2 17.5523 2.44772 18 3 18H4C4.55228 18 5 17.5523 5 17V15ZM5 15H15M15 15V17C15 17.5523 15.4477 18 16 18H17C17.5523 18 18 17.5523 18 17V16C18 15.4477 17.5523 15 17 15H15Z"
        stroke="currentColor"
        stroke-width="1.5"
        stroke-linecap="round"
        stroke-linejoin="round"/>
</svg>
